# xmcd
#
# Track frame offsets:
#	150
#	22025
#	42165
#	62000
#	81970
#	97160
#	113270
#	131247
#	147120
#	163172
#	182522
#	202720
#
# Disc length: 2950 seconds
#
# Revision: 0
# Processed by: cddbd v1.5.2PL0 Copyright (c) Steve Scherf et al.
# Submitted via: EasyCDDAExtractor 2010.6.0.0
#
DISCID=9d0b840c
DTITLE=Mikle - Aistien puutarha
DYEAR=1996
DGENRE=dance
TTITLE0=Ainiaan
TTITLE1=Miks' aina min‰
TTITLE2=Hani on hunajaa (zoo mix)
TTITLE3=Oi Julia
TTITLE4=Voit luokseni s‰ aina tulla uudestaan (Feat. Kaza)
TTITLE5=Et saa
TTITLE6=Hulluna sinuun
TTITLE7=Voitko anteeksi antaa
TTITLE8=Sin‰ ja h‰n (radio cut)
TTITLE9=M‰ pelk‰‰n etten rakasta sua en‰‰
TTITLE10=Alla onnellisten t‰htien
TTITLE11=Voit luokseni s‰ aina tulla uudestaan Remix (Feat. Kaza)
EXTD=
EXTT0=
EXTT1=
EXTT2=
EXTT3=
EXTT4=
EXTT5=
EXTT6=
EXTT7=
EXTT8=
EXTT9=
EXTT10=
EXTT11=
PLAYORDER=
